HIERARCHY
ROOT pelvis
{
  OFFSET 0 100 0
  CHANNELS 6 Xposition Yposition Zposition Zrotation Xrotation Yrotation
  JOINT pelvis_right_femur
  {
    OFFSET -10.78128 -3.44521 -0.5502486
    CHANNELS 3 Zrotation Xrotation Yrotation
    JOINT right_femur_tibia
    {
      OFFSET -0.8047443 -44.0398 -0.1307829
      CHANNELS 3 Zrotation Xrotation Yrotation
      JOINT right_tibia_foot
      {
        OFFSET 3.006224 -47.83518 -5
        CHANNELS 3 Zrotation Xrotation Yrotation
        End Site
        {
          OFFSET 0 -5 15
        }
      }
    }
  }
  JOINT pelvis_left_femur
  {
    OFFSET 10.78128 -3.44521 -0.5502486
    CHANNELS 3 Zrotation Xrotation Yrotation
    JOINT left_femur_tibia
    {
      OFFSET 0.8047443 -44.0398 -0.1307829
      CHANNELS 3 Zrotation Xrotation Yrotation
      JOINT left_tibia_foot
      {
        OFFSET -4.370144 -48.10324 -4.275266
        CHANNELS 3 Zrotation Xrotation Yrotation
        End Site
        {
          OFFSET 0 -5 15
        }
      }
    }
  }
  JOINT pelvis_spine1
  {
    OFFSET 0 6.468898 -3.129235
    CHANNELS 3 Zrotation Xrotation Yrotation
    JOINT spine1
    {
      OFFSET 0 23.15396 4.99043
      CHANNELS 3 Zrotation Xrotation Yrotation
      JOINT spine2
      {
        OFFSET 0 20.79997 -5.064912
        CHANNELS 3 Zrotation Xrotation Yrotation
        JOINT neck
        {
          OFFSET 0 14.38658 9.616178
          CHANNELS 3 Zrotation Xrotation Yrotation
          End Site
          {
            OFFSET 0 20 0
          }
        }
      }
      JOINT right_manubrium
      {
        OFFSET -5.722621 16.35077 3.967754
        CHANNELS 3 Zrotation Xrotation Yrotation
        JOINT right_clavicle
        {
          OFFSET -13.16364 1.694482 -4.693211
          CHANNELS 3 Zrotation Xrotation Yrotation
          JOINT right_humerus
          {
            OFFSET -28.5034 -0.3100689 -2.792744
            CHANNELS 3 Zrotation Xrotation Yrotation
            JOINT right_radius
            {
              OFFSET -25.15693 0.02248979 -1.271978
              CHANNELS 3 Zrotation Xrotation Yrotation
              End Site
              {
                OFFSET -15 0 0
              }
            }
          }
        }
      }
      JOINT left_manubrium
      {
        OFFSET 5.722621 16.35077 3.967754
        CHANNELS 3 Zrotation Xrotation Yrotation
        JOINT left_clavicle
        {
          OFFSET 13.16364 1.694482 -4.693211
          CHANNELS 3 Zrotation Xrotation Yrotation
          JOINT left_humerus
          {
            OFFSET 29.39168 -1.063119 -2.237045
            CHANNELS 3 Zrotation Xrotation Yrotation
            JOINT left_radius
            {
              OFFSET 24.59957 -0.9528479 0.9047498
              CHANNELS 3 Zrotation Xrotation Yrotation
              End Site
              {
                OFFSET 15 -0 -0
              }
            }
          }
        }
      }
    }
  }
}
MOTION
Frames: 7
Frame Time: 0.0416666666667
1942.207 102.8679 2104.557 6.800094 -0.490315 78.79402 3.797406 11.13075 4.947298 -0 15.15744 -0 0.8839538 -13.53611 -3.190671 0.9108046 -22.32997 -2.593287 -0 36.92591 -0 -7.266626 -6.720664 18.70161 -1.047708 1.681815 8.133364 -0.1178261 10.12063 -3.639981 1.811086 22.30547 5.486703 2.850886 -16.5454 6.210865 3.043281 -19.71642 11.99769 79.74613 26.23173 -7.682322 -0 0 20.68085 -24.07545 12.018 12.89938 4.316591 -17.28112 -3.214818 -91.78852 23.03662 21.214 0 0 -13.61685 -1.240929 5.413801 15.2298
1948.741 101.8453 2105.063 7.60859 -0.8673201 78.14892 3.519838 13.41232 6.374582 -0 19.02998 -0 3.612908 -14.1201 -3.319214 1.505648 -23.49641 -2.464309 -0 30.20854 -0 -7.556077 -7.315628 19.21184 -0.457852 1.537043 8.627908 -0.8641197 10.24196 -2.941355 2.327883 21.7078 5.12055 2.329103 -15.67745 6.661969 1.749999 -20.97251 11.67485 79.92484 22.16142 -6.302744 -0 0 24.71955 -25.18135 11.66671 13.36535 4.444825 -15.8482 -3.304089 -92.80349 22.64854 23.31669 0 0 -11.78581 -2.564388 3.80185 16.78139
1955.716 100.7612 2105.443 8.809348 -1.107803 77.67045 2.842067 14.88945 7.704253 -0 24.34531 -0 7.008204 -14.01903 -3.387043 1.169003 -23.09868 -3.422324 -0 26.75398 -0 -8.132348 -7.84718 19.0174 0.04353275 1.326755 9.173746 -1.744415 10.37328 -2.110699 2.978572 21.20363 4.945557 1.678768 -14.90662 7.662698 0.632863 -21.82704 11.31569 80.76304 18.67059 -5.562876 -0 0 27.94981 -26.51079 12.82006 13.67964 4.419872 -14.237 -3.559235 -93.49818 22.15441 25.4959 0 0 -10.59342 -3.690569 3.099627 18.12179
1962.872 100.0594 2105.716 9.548286 -0.9576293 77.46908 1.633868 15.61667 7.695282 -0 30.45169 -0 9.537888 -13.00216 -3.350966 -0.06437436 -21.60383 -5.159902 -0 25.52767 -0 -8.575284 -8.330907 18.44198 -0.1418302 0.994903 9.267982 -2.366344 9.954722 -1.46692 3.418901 21.37612 5.284666 1.209764 -14.6023 9.006558 0.585512 -21.54177 10.92798 80.92095 18.73027 -4.914892 -0 0 28.35755 -28.51467 15.69349 14.25233 4.136325 -12.94213 -3.677914 -93.48379 22.09404 26.57588 0 0 -9.856239 -4.179613 4.8101 18.56283
1969.955 100.0485 2105.955 9.397911 -0.4345413 77.6196 0.4758108 14.91842 6.837705 -0 37.52789 -0 9.237929 -10.46719 -3.971132 -1.6715 -19.16903 -6.443196 -0 25.31816 -0 -7.980113 -8.830991 18.1044 -1.108523 0.6229334 8.724476 -2.33919 9.415695 -1.636413 3.341438 21.90971 5.611897 1.181755 -14.91362 9.445148 1.386571 -20.42785 10.60233 80.82771 21.34932 -4.960119 -0 0 25.93685 -28.96783 16.77868 14.48502 3.649524 -12.73356 -3.491866 -92.64562 22.56739 25.74784 0 0 -9.347894 -3.746028 6.451471 18.13872
1976.887 100.6024 2106.209 9.166058 0.03608675 78.13709 -0.01347294 12.55949 6.404713 -0 44.54481 -0 7.044163 -6.970046 -5.344934 -3.08507 -15.80608 -6.753329 -0 25.3258 -0 -6.460145 -9.538385 18.00456 -2.093197 0.4166474 7.936977 -1.871896 9.562736 -2.511724 2.975991 22.10332 5.360996 1.234945 -15.55758 8.742913 1.752012 -19.70373 10.44615 82.05669 22.52199 -6.321505 -0 0 23.14536 -26.78841 14.56491 13.91055 3.200817 -13.46539 -3.332644 -91.46828 23.02348 24.05132 0 0 -9.357199 -2.929508 5.610285 17.70258
1983.615 101.4929 2106.445 9.026945 0.3310921 78.93694 -0.1207948 9.399267 6.046403 -0 49.69561 -0 5.01147 -3.722303 -6.474556 -4.136834 -12.28945 -6.800885 -0 24.75505 -0 -5.023559 -10.43025 17.84874 -2.734719 0.3299759 7.150749 -1.376256 10.018 -3.469843 2.585833 22.12075 5.142362 1.271438 -16.21866 8.025885 1.855816 -19.34883 10.45651 83.66965 22.8678 -8.094653 -0 0 20.87552 -24.79666 12.32176 13.4969 2.936983 -14.46563 -3.403762 -90.37873 23.31156 22.4299 0 0 -9.939684 -2.265954 4.497881 17.40909
